# xmcd CD database file
#
# Track frame offsets:
#	150
#	14215
#	34565
#	53972
#	74450
#	89400
#	106897
#	124007
#
# Disc length: 1890 seconds
#
# Revision: 0
# Processed by: cddbd v1.5.2PL0 Copyright (c) Steve Scherf et al.
# Submitted via: CDex 1.51
#
DISCID=6b076008
DTITLE=Marc Vee - Speaking in Sounds
DYEAR=1996
DGENRE=Jazz
TTITLE0=Verano
TTITLE1=Be Yourself
TTITLE2=Tears of Joy
TTITLE3=Recuerdo
TTITLE4=Ayer
TTITLE5=Yin and Yang
TTITLE6=AngloSpana
TTITLE7=Smile
EXTD=YEAR: 1996
EXTT0=
EXTT1=
EXTT2=
EXTT3=
EXTT4=
EXTT5=
EXTT6=
EXTT7=
PLAYORDER=
